<svg xmlns="http://www.w3.org/2000/svg" width="400" height="230"
     viewBox="0 0 400 230" role="img" aria-label="&gt; LANGUAGE MIX">
  <defs>
    <linearGradient id="edge" x1="0" y1="0" x2="1" y2="1">
      <stop offset="0%" stop-color="#21E6C1"/>
      <stop offset="55%" stop-color="#FF4F9A"/>
      <stop offset="100%" stop-color="#FFB24D"/>
    </linearGradient>
    <pattern id="scan" width="4" height="4" patternUnits="userSpaceOnUse">
      <rect width="4" height="1" fill="#21E6C1" opacity="0.035"/>
    </pattern>
    <filter id="glow"><feGaussianBlur stdDeviation="2.2" result="b"/><feMerge><feMergeNode in="b"/><feMergeNode in="SourceGraphic"/></feMerge></filter>
  </defs>

  <rect x="1" y="1" width="398" height="228" rx="10"
        fill="#0D0619" stroke="url(#edge)" stroke-width="2"/>
  <rect x="1" y="1" width="398" height="228" rx="10" fill="url(#scan)"/>

  <text x="22" y="34" font-family="'Share Tech Mono','Consolas','Courier New',monospace" font-size="15" fill="#21E6C1"
        letter-spacing="2" filter="url(#glow)">&gt; LANGUAGE MIX</text>
  <line x1="22" y1="45" x2="378" y2="45" stroke="#6E5A8A" stroke-width="1" opacity="0.5"/>

  <rect x="26" y="62" width="348" height="12" rx="6" fill="#140A24"/>
  <clipPath id="barclip"><rect x="26" y="62" width="348" height="12" rx="6"/></clipPath>
  <g clip-path="url(#barclip)">
    <rect x="26.0" y="62" width="302.6" height="12" fill="#3572A5"/>
    <rect x="328.6" y="62" width="30.5" height="12" fill="#f1e05a"/>
    <rect x="359.1" y="62" width="8.5" height="12" fill="#e34c26"/>
    <rect x="367.6" y="62" width="3.7" height="12" fill="#663399"/>
    <rect x="371.2" y="62" width="2.6" height="12" fill="#dea584"/>
    <rect x="373.9" y="62" width="0.1" height="12" fill="#89e051"/>
  </g>
  <rect x="26" y="95" width="10" height="10" rx="2" fill="#3572A5"/>
  <text x="44" y="104" font-family="'Share Tech Mono','Consolas','Courier New',monospace" font-size="12" fill="#C9D1D9">Python</text>
  <text x="44" y="118" font-family="'Share Tech Mono','Consolas','Courier New',monospace" font-size="10" fill="#6E5A8A">87.0%</text>
  <rect x="206" y="95" width="10" height="10" rx="2" fill="#f1e05a"/>
  <text x="224" y="104" font-family="'Share Tech Mono','Consolas','Courier New',monospace" font-size="12" fill="#C9D1D9">JavaScript</text>
  <text x="224" y="118" font-family="'Share Tech Mono','Consolas','Courier New',monospace" font-size="10" fill="#6E5A8A">8.8%</text>
  <rect x="26" y="123" width="10" height="10" rx="2" fill="#e34c26"/>
  <text x="44" y="132" font-family="'Share Tech Mono','Consolas','Courier New',monospace" font-size="12" fill="#C9D1D9">HTML</text>
  <text x="44" y="146" font-family="'Share Tech Mono','Consolas','Courier New',monospace" font-size="10" fill="#6E5A8A">2.4%</text>
  <rect x="206" y="123" width="10" height="10" rx="2" fill="#663399"/>
  <text x="224" y="132" font-family="'Share Tech Mono','Consolas','Courier New',monospace" font-size="12" fill="#C9D1D9">CSS</text>
  <text x="224" y="146" font-family="'Share Tech Mono','Consolas','Courier New',monospace" font-size="10" fill="#6E5A8A">1.1%</text>
  <rect x="26" y="151" width="10" height="10" rx="2" fill="#dea584"/>
  <text x="44" y="160" font-family="'Share Tech Mono','Consolas','Courier New',monospace" font-size="12" fill="#C9D1D9">Rust</text>
  <text x="44" y="174" font-family="'Share Tech Mono','Consolas','Courier New',monospace" font-size="10" fill="#6E5A8A">0.8%</text>
  <rect x="206" y="151" width="10" height="10" rx="2" fill="#89e051"/>
  <text x="224" y="160" font-family="'Share Tech Mono','Consolas','Courier New',monospace" font-size="12" fill="#C9D1D9">Shell</text>
  <text x="224" y="174" font-family="'Share Tech Mono','Consolas','Courier New',monospace" font-size="10" fill="#6E5A8A">0.0%</text>
  <line x1="26" y1="198" x2="374" y2="198" stroke="#6E5A8A" stroke-width="1" stroke-dasharray="2 4" opacity="0.45"/>
  <text x="26" y="214" font-family="'Share Tech Mono','Consolas','Courier New',monospace" font-size="9" fill="#6E5A8A">8 LANGUAGES // 4.0 MB OF SOURCE</text>
</svg>
